inDegrees=no
num_controls=7
num_derivatives=13
num_iterations=122
num_multipliers=7
num_parameters=0
num_slacks=7
num_states=26
objective=0.469844
objective_accelerations=0.062636
objective_balance=0.002057
objective_effort=0.020024
objective_height=0.375581
objective_ligament=0.009546
solver_duration=1764.612863
status=Solve_Succeeded
success=true
DataType=double
version=3
OpenSimVersion=4.5
endheader
time	/jointset/ground_pelvis/pelvis_tilt/value	/jointset/ground_pelvis/pelvis_tx/value	/jointset/ground_pelvis/pelvis_ty/value	/jointset/hip_l/hip_flexion_l/value	/jointset/hip_l/hip_adduction_l/value	/jointset/hip_l/hip_rotation_l/value	/jointset/back/lumbar_extension/value	/jointset/patellofemoral_l/patellar_flexion_l/value	/jointset/knee_l/knee_flexion_l/value	/jointset/knee_l/knee_adduction_l/value	/jointset/knee_l/knee_rotation_l/value	/jointset/ankle_l/ankle_angle_l/value	/jointset/subtalar_l/subtalar_angle_l/value	/jointset/ground_pelvis/pelvis_tilt/speed	/jointset/ground_pelvis/pelvis_tx/speed	/jointset/ground_pelvis/pelvis_ty/speed	/jointset/hip_l/hip_flexion_l/speed	/jointset/hip_l/hip_adduction_l/speed	/jointset/hip_l/hip_rotation_l/speed	/jointset/back/lumbar_extension/speed	/jointset/patellofemoral_l/patellar_flexion_l/speed	/jointset/knee_l/knee_flexion_l/speed	/jointset/knee_l/knee_adduction_l/speed	/jointset/knee_l/knee_rotation_l/speed	/jointset/ankle_l/ankle_angle_l/speed	/jointset/subtalar_l/subtalar_angle_l/speed	/forceset/tau_hip_flexion_l	/forceset/tau_hip_adduction_l	/forceset/tau_hip_rotation_l	/forceset/tau_knee_flexion_l	/forceset/tau_ankle_angle_l	/forceset/tau_subtalar_angle_l	/forceset/tau_lumbar_extension	lambda_cid13_p0	lambda_cid13_p1	lambda_cid13_p2	lambda_cid13_p3	lambda_cid13_p4	lambda_cid13_p5	lambda_cid14_p0	/jointset/ground_pelvis/pelvis_tilt/accel	/jointset/ground_pelvis/pelvis_tx/accel	/jointset/ground_pelvis/pelvis_ty/accel	/jointset/hip_l/hip_flexion_l/accel	/jointset/hip_l/hip_adduction_l/accel	/jointset/hip_l/hip_rotation_l/accel	/jointset/back/lumbar_extension/accel	/jointset/patellofemoral_l/patellar_flexion_l/accel	/jointset/knee_l/knee_flexion_l/accel	/jointset/knee_l/knee_adduction_l/accel	/jointset/knee_l/knee_rotation_l/accel	/jointset/ankle_l/ankle_angle_l/accel	/jointset/subtalar_l/subtalar_angle_l/accel	gamma_cid13_p0	gamma_cid13_p1	gamma_cid13_p2	gamma_cid13_p3	gamma_cid13_p4	gamma_cid13_p5	gamma_cid14_p0
0	0.05086594256537096	0.1064614526562762	0.9041501076837631	0.1266922784136757	-0.3592196876425616	-0.2410638550862835	-0.2144969558742783	0.2051545070141877	0.2051545070141877	-0.1516486597183676	-0.1704046921821573	0.09024313228550125	0.09096840514712456	0	0	0	0	0	0	0	0	0	0	0	0	0	0.1123021923609969	-0.04955538985929732	-0.005725660707935328	-0.2063162678720316	0.08467478546387447	-0.06047018374777943	-0.0519076945733461	-3.884734916236894	25.12312521970211	-2.208285919870232	22.21021656268101	-450.3843584357164	-62.28896374914475	-26.43271279546547	-6.042333542161924	-2.573348126223528	-0.8657475092854978	14.40423273613537	0.02583756032914997	2.393809680313074	-3.961082516904596	7.265306652850271	7.265306652850281	1.900859481482899	-0.4949441894027551	-0.4228839729093669	-0.1329140122961385	2.076204739577921e-08	1.80785340111835e-07	-6.908056716307446e-08	3.48833141338121e-09	1.082021776034343e-07	9.631633465589098e-08	2.943825934675456e-08
0.01	0.05057269020229029	0.1063349946041598	0.9041079839658672	0.1273944799480893	-0.3592181216542189	-0.2409403033521512	-0.2146996357910294	0.205507953074362	0.2055079530743621	-0.1515559894418672	-0.1704219369958509	0.09022141681636021	0.09096183225507265	-0.05848379561777956	-0.02510628259160423	-0.008406916713790217	0.1398090668076401	0.0002782460312087062	0.02468496086667177	-0.04026680724340445	0.07034787421517394	0.07034787421517356	0.01836437597798328	-0.003346495331154885	-0.004255356264041252	-0.001325017605887868	0.1120975757072923	-0.06055577346325576	-0.005874647405248411	-0.2091625682694931	0.08798673798702902	-0.05162322665006402	-0.05120845943242172	-2.228680125070076	21.0571479644806	-1.635695640701899	19.67727707204497	-450.5616755447355	-71.00194811179011	-26.43252639573459	-5.726401685397055	-2.451468453209931	-0.8254680821788964	13.67455835140421	0.02355449976817061	2.502047769079882	-4.019103412038057	6.868321245245866	6.868321245245808	1.778798799715882	-0.2391479106684952	-0.4136936902600624	-0.1338821231523095	1.029410403722054e-08	2.641347980900061e-07	-3.420872191945067e-08	1.806263058405686e-08	-6.563941108128806e-08	6.633110234986276e-08	4.170912542421031e-08
0.02	0.04969960006026961	0.1059630337006111	0.9039823302148826	0.1294758350902445	-0.3592148259305138	-0.2405706603135051	-0.2152969084970104	0.2065546365645671	0.2065546365645671	-0.1512847609768351	-0.1704695759039953	0.09015978133715703	0.09094169188927841	-0.1159675557880025	-0.04910057028645087	-0.01670600661770517	0.2758307215483156	0.0003459470724750014	0.04921826090276973	-0.07891855784599648	0.1386474860061443	0.1386474860061437	0.03571163770636015	-0.006078818890175371	-0.007984002012424829	-0.002713494748463681	0.1118929590535876	-0.0715561570672142	-0.006023634102561447	-0.2120088686669546	0.09129869051018355	-0.04277626955234862	-0.05050922429149734	-0.5401664837914296	16.99077444056983	-1.069082813170464	17.22637294078327	-450.0837808401104	-79.5842805387289	-26.43177171751961	-5.84232645265059	-2.350949146872009	-0.8441821473104453	13.64675032274244	-0.01627143765933224	2.363477514198315	-3.638071188742115	6.855654168009549	6.855654168009587	1.697436631561616	-0.3721098349758752	-0.3175418697778321	-0.1456059196337277	-1.738393213381385e-10	3.474842560681772e-07	6.631233241731212e-10	3.263692975473251e-08	-2.394809997660104e-07	3.634587004383453e-08	5.397999150166606e-08
0.03	0.04825696499260512	0.1053557863943881	0.9037740223030233	0.1328994682560184	-0.3592115158668279	-0.2399581737566008	-0.2162717106824141	0.2082744016062229	0.2082744016062229	-0.1508443443385979	-0.1705430337545123	0.09006244662003157	0.09090747060882245	-0.172304029537593	-0.07225120926609095	-0.02494974182042961	0.4082742564248693	0.0003195417231881694	0.07317319062303476	-0.1157424815332725	0.2049492463176482	0.2049492463176492	0.05226353772887656	-0.008562692144866251	-0.01150771707454222	-0.004133305401425569	0.1077764138794186	-0.06718223953002891	-0.005415532930859615	-0.2081120711616326	0.08833011274592953	-0.0447624875529259	-0.04731925273026521	-1.5495076677478	17.92932274413756	-1.103581004580672	17.40851006106138	-449.3781904437778	-76.82610970251339	-26.43020824307816	-5.490988695035203	-2.28246243343167	-0.8136427152838979	12.94990793724198	0.004641457982774598	2.395632342236532	-3.65964330349866	6.463984716036048	6.46398471603626	1.617904843417469	-0.179025437410124	-0.3734889776418253	-0.1406053746484807	-3.876880139802872e-09	3.784578979408533e-07	1.087667476102945e-08	3.904358724981608e-08	-3.426637561720471e-07	1.757535024673623e-08	6.150327011170529e-08
0.04	0.04625862901566034	0.1045199644663845	0.9034834423374307	0.1376288873439838	-0.3592083765483257	-0.2391093115742346	-0.2176057701736463	0.2106464938016569	0.2106464938016568	-0.1502416410689715	-0.1706398302109151	0.08992913422164231	0.09085896387453266	-0.227107737644061	-0.09481549464259752	-0.03316041736437245	0.5369879059866292	0.0003117980357468692	0.09649338599513725	-0.1507700190116781	0.2691129167617613	0.2691129167617637	0.06816896398422551	-0.01074654006733323	-0.01517953826518493	-0.005570585515229912	0.1036598687052494	-0.06280832199284365	-0.004807431759157475	-0.2042152736563106	0.08536153498167548	-0.04674870555350321	-0.04412928116903309	-2.529596516862807	18.86771528390295	-1.14372788570763	17.66400828497006	-448.0846786061144	-73.9467885898807	-26.42743733351156	-5.535773324026092	-2.233678426245304	-0.8375702155541334	12.9007732597837	-0.01253910529020654	2.236530644565811	-3.278793946968044	6.428036194531352	6.428036194531384	1.568141878128115	-0.3121047685309857	-0.347163095482897	-0.1490998118022185	-7.440438431667732e-09	4.083516260793955e-07	2.058180776888027e-08	4.528183976189776e-08	-4.443896294383171e-07	-9.639383646109517e-10	6.89286603203545e-08
0.05	0.04371902435558612	0.1034614690238289	0.9031106276710708	0.1436282862498676	-0.3592051948328503	-0.2380311829321061	-0.2192805914477641	0.2136505616531458	0.2136505616531458	-0.1494828691725913	-0.1707579534573777	0.08975875364391905	0.09079615693720676	-0.2805743977751418	-0.1167783790673378	-0.04141634887625308	0.662296925044269	0.0003281825988662524	0.1190231236240742	-0.1839151582274275	0.3313745655250621	0.3313745655250641	0.08347459290798685	-0.01283346457676353	-0.01890123902742021	-0.006986843221524854	0.09949489952453473	-0.06223536812989774	-0.004174552732415447	-0.2011684281743594	0.08289470196381228	-0.04545532164731594	-0.04098685037019691	-3.130118050928884	18.32445282555818	-0.9580925863240378	17.43767279681368	-446.6270396277433	-74.18152551308843	-26.42305634599924	-5.216284018885663	-2.161802123632846	-0.8217692642563783	12.25672582671661	0.009206013632037735	2.244822354345226	-3.290512271209024	6.076302169849788	6.076302169849735	1.495224541449948	-0.1502962630330189	-0.385355969970714	-0.1373617735025852	-9.032491677739439e-09	3.896632975763092e-07	1.653059567620354e-08	4.676083083560646e-08	-4.940161625274413e-07	-1.59535601643877e-08	7.02723727207069e-08
0.06	0.04065191876195379	0.102186503002417	0.9026548207605418	0.1508629272659203	-0.35920175351644	-0.2367310315072307	-0.2212784917865056	0.2172674605827918	0.2172674605827918	-0.1485743507585837	-0.1708956079431114	0.08955101957789806	0.09071929281812603	-0.3326079243556859	-0.1381096104138568	-0.04975886619818781	0.7840363280204085	0.0003637182227467195	0.1408979425445147	-0.215385831936402	0.3916791323931768	0.3916791323931789	0.09811826750974031	-0.01465278792155247	-0.02265023592473102	-0.008382021866197924	0.09532993034381992	-0.06166241426695181	-0.00354167370567333	-0.1981215826924083	0.08042786894594905	-0.04416193774112866	-0.03784441957136078	-3.704964650690657	17.78174333537939	-0.7783127611818134	17.28001344915167	-444.6490136090363	-74.30318151737659	-26.41650403661214	-5.249146613918727	-2.107347810601065	-0.8548873775649563	12.18685004348366	-0.008708893137989773	2.105546902866509	-2.943900845613057	6.036619815494167	6.036619815494261	1.435751013726539	-0.2585845356027114	-0.352622322498074	-0.1448839994778445	-1.054153418504091e-08	3.689294087935753e-07	1.190016905297828e-08	4.803943195401525e-08	-5.414490391880542e-07	-3.079372230894043e-08	7.136001447649943e-08
